<?xml version="1.0" standalone="no"?>
<!DOCTYPE svg PUBLIC "-//W3C//DTD SVG 20010904//EN"
 "http://www.w3.org/TR/2001/REC-SVG-20010904/DTD/svg10.dtd">
<svg version="1.0" xmlns="http://www.w3.org/2000/svg"
 width="90.000000pt" height="90.000000pt" viewBox="0 0 90.000000 90.000000"
 preserveAspectRatio="xMidYMid meet">
<metadata>
Created by potrace 1.14, written by Peter Selinger 2001-2017
</metadata>
<g transform="translate(0.000000,90.000000) scale(0.100000,-0.100000)"
fill="#000000" stroke="none">
<path d="M637 773 c-4 -3 -7 -152 -7 -330 l0 -323 90 0 90 0 0 324 c0 286 -2
325 -16 330 -21 8 -149 8 -157 -1z"/>
<path d="M103 653 c-10 -3 -13 -67 -13 -269 l0 -264 90 0 90 0 0 264 c0 231
-2 265 -16 270 -18 7 -133 7 -151 -1z"/>
<path d="M373 533 c-10 -3 -13 -55 -13 -209 l0 -204 90 0 90 0 0 204 c0 177
-2 205 -16 210 -18 7 -133 7 -151 -1z"/>
</g>
</svg>
